<svg width="800" height="1000" viewBox="0 0 800 1000" fill="none" xmlns="http://www.w3.org/2000/svg"><rect width="800" height="1000" rx="56" fill="#FFF9F1"/><rect x="28" y="28" width="744" height="944" rx="50" stroke="#EECFD2" stroke-width="2"/><rect x="60" y="60" width="680" height="880" rx="42" stroke="#F2D9DB" stroke-width="1.5"/><circle cx="184" cy="198" r="112" fill="#F7CDD8"/><circle cx="118" cy="360" r="96" fill="#E2EBDF" fill-opacity="0.95"/><circle cx="596" cy="260" r="132" fill="#E4EDE2"/><circle cx="642" cy="610" r="110" fill="#F7D2DA"/><g transform="translate(-58 62) scale(0.31)" opacity="0.28"><path d="M859.29 140.28c-5.31-15.34-79.28-7-116 9.42s-163.34 116.58-188.52 172-17.35 64.14-30 84.29-17.1 33.3-22.12 27.66-2.24-16.66 7.83-36.5 28-55 32.21-78.58-10.15-111.32-11.56-147.31-15.46-105.8-33.6-106.37-69.25 69.39-75.15 122.11-17.46 139.43 4.21 195.12 34.11 42.14 41.25 66.88-14 82.5-40.95 117.38-37 46.84-48.27 43.18-17-29-9.06-46.76 26.22-37.12 26.48-61.55-9.33-113.22-15.22-136.06S360 291.87 358 272.34s2.85-67.45-10.61-72.41c-23.69-7.57-57.39 50.77-76.1 132.25s6.86 148 15.18 161.37 27.85 46.23 41.65 61.22 25.81 20.89 29.44 46.57 5.44 38.52-9.79 74.66-66.06 149.34-83 166.45c-4.19-42.4 6.47-30.15 7.41-63.57s-3.05-43.81 3-74.05-21.14-139.41-46-168.41c-12.13-15.05-8-53.59-15.32-54.33s-9.44-2.44-13.92 22.33-43 102-34.27 169.44 12.82 73.72 21.86 87.69 21.56 23.3 31.14 50.25 10.82 40.5 20.73 48.44-16.17 92.81-16.17 92.81l28.17 6s24.82-125.4 50.13-137 37.28 17.63 83.27 17.95 103.84-15.91 129.29-26.22 41.21-16.06 66.32-36.4 56.41-67.58 74.87-89.77 31.63-25.58 25.85-33.46-33.3-3.41-61-1.88-114.7 6.52-178.61 29.73-85.12 71.8-96.12 84.38-14.63 27.62-24.49 21.32-4.73-14.71 1.28-23.38 78.23-177 162.4-192.17c40.67-5.8 37.86 24.72 92.36 26s138.9-18.76 202.48-98.5c47.14-59.19 61-113.91 66.63-121s-28.71-13.21-53.39-6.47-35 16.15-58.92 19.32S607 402.11 563.34 443s-47.73 91-66.93 103.09-41.9 25-44.33 17.05 42.39-100.88 78.53-141.68c11.65-13.69 29-5.41 67.11-24.61s144-102.73 174.92-136.36 32.09-58.69 57.77-79.74 30.84-34.75 28.88-40.47z" fill="#9EB29A"/><path d="M207.57 519c-11.4 41.54-7.11 122.14 1.1 161.26s31.48 151.17 31.48 151.17-17-118.18-24.28-165.4-8.3-147.03-8.3-147.03zM322.07 240.56C306.49 289.51 307.36 371 310.53 395s25.7 143.29 39 158.6c-17.27-74.25-28.49-121-33.21-164.41-4.65-43.1-0.32-77.72 5.75-148.63zM641.9 671.54c-33.45 39-103.26 81.1-125.27 91S381.22 816 361.2 812.71c72.25-24.34 117.88-39.36 157.31-58.18 39.09-18.66 66.27-40.53 123.39-82.99zM486 95.61c-10.09 27.71-43.91 204.72-21.09 280.17C450.33 288.82 486 95.61 486 95.61zM792.13 181.21c-39.45 21.42-213.55 167.5-225.74 185.64 33.42-22.3 225.74-185.64 225.74-185.64zM808.82 411.65c-18.6 24.78-170.91 157-273.46 145 159.64-32.19 273.46-145 273.46-145z" fill="#7A8975" opacity="0.45"/></g><g transform="translate(430 138) scale(0.3) rotate(-6 256 256)" opacity="0.22"><path clip-rule="evenodd" d="M410.048,106.922c-18.811-11.191-30.646,7.055-30.646,7.055s11.294-18.59-6.106-30.855c-6.456-4.18-22.03-4.233-32.72,12.277c-8.381,12.94-1.265,47.543,2.597,63.282c-0.284,0.375-0.537,0.783-0.751,1.224l-41.153,85.215c0.038-15.544-3.231-31.116-17.317-26.946c-20.957,6.203-15.954,56.203-3.738,70.546l-68.219,141.26l-9.202-72.662c17.234-8.761,42.274-50.292,26.505-64.833c-13.229-12.203-24.87,9.423-31.411,26.104l-9.782-77.251c12.214-17.819,27.916-39.964,24.496-56.543c-3.974-19.269-18.572-24.82-26.107-23.242c-21.245,5.293-16.803,26.59-16.802,26.59c0,0-5.066-21.16-26.056-17.622c-7.536,1.573-18.63,12.497-14.605,31.75c3.065,14.652,30.881,33.526,45.148,42.357l10.541,83.226c-14.658-13.64-45.862-40.041-50.753-22.56c-5.936,21.186,38.114,28.544,53.634,45.323L200.896,455.6c0.396,3.135,2.796,5.619,5.917,6.127c3.114,0.507,6.177-1.087,7.55-3.929l81.745-169.268c21.299-8.201,64.162,4.559,68.071-17.003c3.468-19.099-42.461-6.271-59.411-0.93l50.471-104.509c0.234-0.489,0.397-0.991,0.514-1.498c21.1-4.029,47.345-8.759,56.487-22.783C422.977,125.325,416.512,111.109,410.048,106.922z" fill="#A2B29B" fill-rule="evenodd"/><path d="M394.059,77.7l-0.272-0.168c-5.541-3.317-11.205-4.851-16.4-4.832c-2.49,0.073-4.763,0.438-6.866,0.971c-1.179-6.758-5.113-14.236-12.934-19.581l-0.28-0.189c-3.927-2.504-8.563-3.688-13.714-3.72c-10.131-0.09-22.4,5.366-30.814,18.526c-4.415,7.087-5.183,15.197-5.281,23.793c0.062,18.878,5.386,41.067,7.783,50.222l-32.813,67.949c-0.392-1.614-0.856-3.204-1.434-4.755c-2.139-6.659-8.83-14.241-18.362-14.046c-2.269,0-4.526,0.377-6.756,1.04c-16.998,5.97-20.21,23.878-20.431,39.556c0.026,11.282,2.055,22.778,5.625,32.2c2.181,5.1,4.523,10.387,8.441,14.163l-62.36,129.126l-7.537-59.512c8.71-3.596,15.405-11.498,22.245-20.332c8.317-11.797,15.151-25.88,15.328-39.626c0.058-6.764-2.048-14.13-7.746-19.352c-3.752-3.524-8.621-5.866-13.667-5.833c-12.929,1.251-19.35,10.443-24.41,19.991l-6.912-54.571c10.707-16.982,30.855-40.148,31.51-63.979c0-2.184-0.195-4.388-0.651-6.579c-4.22-20.815-19.793-30.412-31.868-30.302c-1.463,0-2.914,0.136-4.351,0.435l-0.313,0.072c-9.751,2.291-15.769,7.765-19.301,13.678c-4.216-2.959-9.726-5.133-16.917-5.368c-1.93,0-3.934,0.176-5.995,0.521l-0.326,0.059c-11.086,2.497-22.082,14.078-22.251,32.2c0,3.07,0.332,6.3,1.034,9.662c3.895,15.165,18.41,26.12,31.649,36.245c7.983,5.809,15.665,10.629,20.601,13.598l8.543,67.461c-1.056-0.906-2.131-1.819-3.237-2.736c-11.622-9.084-23.443-19.059-37.026-19.794c-6.327-0.61-14.144,5.04-15.463,12.024c-0.566,2.008-0.858,4.07-0.858,6.111c1.242,17.752,16.913,24.041,29.521,30.998c13.369,6.443,26.615,13.669,28.989,19.085c0.988,2.05,2.605,3.875,4.531,5.297l11.562,91.291c0.481,3.766,3.355,6.742,7.094,7.354c3.747,0.61,7.421-1.3,9.064-4.714l76.421-158.242c1.464-0.53,2.836-1.256,4.048-2.124c4.772-4.096,21.432-4.401,37.161-4.383c7.952-0.201,15.795-0.558,23.091-2.99c7.172-2.14,14.754-8.336,16.217-17.621c0.208-1.139,0.325-2.296,0.325-3.473c0.299-6.028-4.097-12.003-8.766-13.988c-4.616-2.248-9.278-2.677-14.194-2.724c-12.148,0.101-27.162,3.61-38.302,6.758l43.622-90.327c21.375-4.73,54.052-6.961,69.107-27.817c4.975-7.604,7.134-15.36,7.12-22.325C405.743,90.992,400.97,82.35,394.059,77.7z" fill="#72836E" opacity="0.42"/></g><g transform="translate(560 470) scale(0.46) rotate(6 256 256)" opacity="0.28"><path clip-rule="evenodd" d="M410.048,106.922c-18.811-11.191-30.646,7.055-30.646,7.055s11.294-18.59-6.106-30.855c-6.456-4.18-22.03-4.233-32.72,12.277c-8.381,12.94-1.265,47.543,2.597,63.282c-0.284,0.375-0.537,0.783-0.751,1.224l-41.153,85.215c0.038-15.544-3.231-31.116-17.317-26.946c-20.957,6.203-15.954,56.203-3.738,70.546l-68.219,141.26l-9.202-72.662c17.234-8.761,42.274-50.292,26.505-64.833c-13.229-12.203-24.87,9.423-31.411,26.104l-9.782-77.251c12.214-17.819,27.916-39.964,24.496-56.543c-3.974-19.269-18.572-24.82-26.107-23.242c-21.245,5.293-16.803,26.59-16.802,26.59c0,0-5.066-21.16-26.056-17.622c-7.536,1.573-18.63,12.497-14.605,31.75c3.065,14.652,30.881,33.526,45.148,42.357l10.541,83.226c-14.658-13.64-45.862-40.041-50.753-22.56c-5.936,21.186,38.114,28.544,53.634,45.323L200.896,455.6c0.396,3.135,2.796,5.619,5.917,6.127c3.114,0.507,6.177-1.087,7.55-3.929l81.745-169.268c21.299-8.201,64.162,4.559,68.071-17.003c3.468-19.099-42.461-6.271-59.411-0.93l50.471-104.509c0.234-0.489,0.397-0.991,0.514-1.498c21.1-4.029,47.345-8.759,56.487-22.783C422.977,125.325,416.512,111.109,410.048,106.922z" fill="#F6D8DE" fill-rule="evenodd"/><path d="M394.059,77.7l-0.272-0.168c-5.541-3.317-11.205-4.851-16.4-4.832c-2.49,0.073-4.763,0.438-6.866,0.971c-1.179-6.758-5.113-14.236-12.934-19.581l-0.28-0.189c-3.927-2.504-8.563-3.688-13.714-3.72c-10.131-0.09-22.4,5.366-30.814,18.526c-4.415,7.087-5.183,15.197-5.281,23.793c0.062,18.878,5.386,41.067,7.783,50.222l-32.813,67.949c-0.392-1.614-0.856-3.204-1.434-4.755c-2.139-6.659-8.83-14.241-18.362-14.046c-2.269,0-4.526,0.377-6.756,1.04c-16.998,5.97-20.21,23.878-20.431,39.556c0.026,11.282,2.055,22.778,5.625,32.2c2.181,5.1,4.523,10.387,8.441,14.163l-62.36,129.126l-7.537-59.512c8.71-3.596,15.405-11.498,22.245-20.332c8.317-11.797,15.151-25.88,15.328-39.626c0.058-6.764-2.048-14.13-7.746-19.352c-3.752-3.524-8.621-5.866-13.667-5.833c-12.929,1.251-19.35,10.443-24.41,19.991l-6.912-54.571c10.707-16.982,30.855-40.148,31.51-63.979c0-2.184-0.195-4.388-0.651-6.579c-4.22-20.815-19.793-30.412-31.868-30.302c-1.463,0-2.914,0.136-4.351,0.435l-0.313,0.072c-9.751,2.291-15.769,7.765-19.301,13.678c-4.216-2.959-9.726-5.133-16.917-5.368c-1.93,0-3.934,0.176-5.995,0.521l-0.326,0.059c-11.086,2.497-22.082,14.078-22.251,32.2c0,3.07,0.332,6.3,1.034,9.662c3.895,15.165,18.41,26.12,31.649,36.245c7.983,5.809,15.665,10.629,20.601,13.598l8.543,67.461c-1.056-0.906-2.131-1.819-3.237-2.736c-11.622-9.084-23.443-19.059-37.026-19.794c-6.327-0.61-14.144,5.04-15.463,12.024c-0.566,2.008-0.858,4.07-0.858,6.111c1.242,17.752,16.913,24.041,29.521,30.998c13.369,6.443,26.615,13.669,28.989,19.085c0.988,2.05,2.605,3.875,4.531,5.297l11.562,91.291c0.481,3.766,3.355,6.742,7.094,7.354c3.747,0.61,7.421-1.3,9.064-4.714l76.421-158.242c1.464-0.53,2.836-1.256,4.048-2.124c4.772-4.096,21.432-4.401,37.161-4.383c7.952-0.201,15.795-0.558,23.091-2.99c7.172-2.14,14.754-8.336,16.217-17.621c0.208-1.139,0.325-2.296,0.325-3.473c0.299-6.028-4.097-12.003-8.766-13.988c-4.616-2.248-9.278-2.677-14.194-2.724c-12.148,0.101-27.162,3.61-38.302,6.758l43.622-90.327c21.375-4.73,54.052-6.961,69.107-27.817c4.975-7.604,7.134-15.36,7.12-22.325C405.743,90.992,400.97,82.35,394.059,77.7z" fill="#9A8E92" opacity="0.24"/></g><text x="164" y="462" fill="#262626" font-family="Georgia, serif" font-size="94" font-style="italic">Spring</text><text x="160" y="580" fill="#2F2F2F" font-family="Georgia, serif" font-size="146" letter-spacing="1">MENU</text><text x="166" y="670" fill="#101010" font-family="Arial, sans-serif" font-size="38" letter-spacing="6">CAFE NHIEU</text></svg>
